<svg width="30" height="31" viewBox="0 0 30 31" fill="none" xmlns="http://www.w3.org/2000/svg">
<g id="Icon">
<path id="&#208;&#161;lose Big" d="M15.0007 16.773L8.36635 23.4073C8.05807 23.7156 7.53926 23.7185 7.22547 23.4152C6.92213 23.1014 6.925 22.5826 7.23328 22.2743L13.8676 15.6399L7.23328 9.0056C6.93178 8.7041 6.91385 8.16914 7.23328 7.87253C7.54154 7.56427 8.05673 7.5629 8.36635 7.87253L15.0007 14.5069L21.635 7.87253C21.9452 7.56233 22.4599 7.56431 22.7681 7.87253C23.0763 8.18074 23.0783 8.69541 22.7681 9.0056L16.1338 15.6399L22.7681 22.2743C23.0777 22.5839 23.0764 23.0991 22.7681 23.4073C22.4715 23.7268 21.9365 23.7088 21.635 23.4073L15.0007 16.773Z" fill="#fff"/>
</g>
</svg>
