<?xml version="1.0" encoding="UTF-8"?><svg id="Ebene_1" xmlns="http://www.w3.org/2000/svg" viewBox="0 0 595.28 583.89"><defs><style>.cls-1{fill:#2b2b2b;}</style></defs><path class="cls-1" d="M463.09,23.1c5.99,3.3,7.8,6.19,8.44,13.08l-.05,258.38,1.69,2.51c10.04,8.32,28.45,15,37.53,23.38,3.4,3.14,4.5,6.26,4.93,10.82.55,5.92.87,32.85-.51,37.38-2.18,7.17-12.63,7.17-14.81,0-2.26-7.42,1.69-33.45-1.53-37.32l-101.1-62.73-3.31-.82-104.04,64.05-.5,90.84c1.93,21.61,11.07,41.29,27.27,55.69l77.36,65.5c1.12.2,3.97-2.2,5.07-3.06,22.74-17.84,51.08-41.6,71.98-61.39,15.71-14.88,26.56-32.52,28.32-54.64.48-6-1.94-25.04,2.86-27.86,7.37-4.33,12.31.54,12.97,7.87,3.19,35.16-9.49,63.84-34.7,87.23-21.15,19.62-49.19,43.85-71.98,61.39-8.84,6.81-12.72,10.76-23.51,3.62-14.94-9.89-28.53-26.99-43.92-36.94l-151.91-.35c-12.63-1.78-7.93-15.66-3.25-15.66h135.99c-7.3-8.33-16.86-14.18-24.18-22.55-11.66-13.34-17.86-28.44-23.06-45.2l-124.43-.54c-7.94-1.48-4.63-14.67-1.08-14.67h124.44v-22.05h-124.44c-4.82,0-4.82-14.7,0-14.7h124.44v-22.05h-124.44c-4.82,0-4.82-14.7,0-14.7h124.44v-18.38c0-.53,1.65-2.21,1.05-3.68h-40.43c-3.52,0-6.51-12.55.22-14.48l59.39-.46c2.86-.59,28.48-16.65,31.99-19.41.86-.67,1.92.04,1.33-2.41h-178c-3.38,0-7.51-13.51,2.05-14.76l181.18.6c3.96,2.21,2.74,4.97,3.19,8.38.19,1.45-.62,1.84,1.55,1.56l45.7-28.87V111.31H98.7v392.75h56.18c4.62,0,9.85,14.15-4.2,15.75-12.13,1.38-43.4,1.31-55.54-.12-6.54-.77-10.66-3.13-12.13-9.93l-.12-403.23c-.86-3.88,4.59-10.97,7.93-10.97h27.83v-25.73c0-3.99,5.92-11.03,9.98-11.03h26.78v-27.83c0-3,5.29-6.14,7.35-7.88h300.34ZM455.74,38.85H171.15v19.95h253.61c2.88,0,10.02,5.19,9.92,8.99-1.59,19.88,2.33,43.55.08,62.97-1.29,11.1-15.77,7.39-15.77-.02v-56.18H135.97l-1.58,1.58v17.85l1.58,1.58h255.18c2.99,0,8.36,6.42,7.9,9.95l-.07,145.81,20,12.25v-97.14c0-7.52,14.19-10.53,15.69-.98l.27,106.85c.9,2.95,17.11,11.61,20.8,13.33V38.85Z"/><path class="cls-1" d="M388.32,319.55c58.21-5.23,97.86,56.78,69.01,107.87-27.42,48.55-99.26,47.68-125.69-1.42-24.55-45.61,4.92-101.8,56.68-106.45ZM388.3,335.28c-38.04,4.29-60.8,45.94-44.38,80.55,17.55,37.01,69.28,43.02,95,11.02,31.64-39.37-.65-97.21-50.62-91.57Z"/><path class="cls-1" d="M149.85,200.79l183,.33c5.31,2.22,4.46,14.24-2.55,14.21h-178.63c-7.34-.05-7.86-12.8-1.82-14.53Z"/><path class="cls-1" d="M149.85,237.55l183,.33c5.31,2.22,4.46,14.24-2.55,14.21h-178.63c-7.34-.05-7.86-12.8-1.82-14.53Z"/><path class="cls-1" d="M185.56,147.24l111.59.33c5.31,2.22,4.46,14.24-2.55,14.21h-107.22c-7.34-.05-7.86-12.8-1.82-14.53Z"/><path class="cls-1" d="M149.85,311.06l65.91-.2c7.05,1.32,6.66,14.44-.97,14.73l-64.08-.08c-6.4-1.19-6.7-12.13-.85-14.45Z"/><path class="cls-1" d="M420.81,370.91c6.08-.6,10.63,5.45,7.88,11.06-6.05,4.82-28.58,32.15-33.55,33.65-2.48.75-4.99.49-7.19-.78-1.77-1.02-21.58-21.59-22.07-23.11-1.75-5.52,2.31-11.13,8.19-10.36,6.08.8,13.12,11.8,18.13,15.55,6.31-4.55,22.03-25.37,28.6-26.01Z"/></svg>