<?xml version="1.0" encoding="UTF-8"?><svg id="Ebene_1" xmlns="http://www.w3.org/2000/svg" viewBox="0 0 595.28 583.89"><defs><style>.cls-1{fill:#2b2b2b;}</style></defs><path class="cls-1" d="M410.23,370.58c26.46-8.94,48.39-4,62.5,19.61,13.62,22.8,7.91,44.03-11.06,62.75,2.07,1,3.75,1.83,5.44,2.63,29.64,13.9,46.84,37.14,51.97,69.39,1.09,6.87-2.4,10.32-10.26,10.33-31.54.03-63.08.01-94.62.01-19.98,0-39.96.02-59.94-.01-8.52-.01-11.35-3.24-10.01-11.64,5.13-31.99,22.68-54.56,51.93-68.19,1.34-.62,2.68-1.25,4-1.92.24-.13.36-.5.68-.99-.44-.57-.83-1.3-1.41-1.82-9.36-8.44-14.61-18.99-16.13-31.44-.29-2.36-.3-4.78-3.77-4.46-3.56.32-2.92,3-2.94,5.19-.07,7.6-.09,15.19-.01,22.79.04,3.78-1,6.8-4.74,8.42-3.92,1.7-6.68-.29-9.19-2.89-9.53-9.85-19.1-19.67-28.46-29.67-2.7-2.89-5.55-4.11-9.52-4.09-23.61.14-47.24-.42-70.83.23-15.85.44-28.47-10.8-28.31-28.54.25-28.4.03-56.81.08-85.21.03-18.03,10.72-28.72,28.64-28.73,42.44-.02,84.87-.02,127.31,0,18.07,0,28.65,10.57,28.66,28.59.01,20.97,0,41.95,0,62.92,0,1.95,0,3.9,0,6.75ZM361.95,423.61c0-5.21-.15-10.43.04-15.63.2-5.39,2.69-7.72,8.06-7.89,3.63-.11,7.27-.18,10.9,0,3.06.14,4.77-1,6.02-3.89,1.57-3.6,3.96-6.84,5.69-10.38,1.11-2.27,2.36-4.8,2.37-7.23.17-26.09.14-52.19.09-78.28-.02-9.33-3.58-12.79-12.96-12.79-42.77-.01-85.54-.01-128.3,0-9.52,0-13.1,3.6-13.11,13.19-.02,28.24-.01,56.48,0,84.72,0,11.06,3.47,14.6,14.43,14.61,24.77.02,49.54.14,74.31-.09,5.25-.05,8.95,1.65,12.58,5.34,6.1,6.2,12.78,11.83,19.89,18.31ZM360.79,519.6h141.52c-3.37-31.47-38.52-57.79-74.9-56.55-31.49,1.07-65.8,30.05-66.61,56.55ZM431.6,447.86c18.51-.04,33.53-15.04,33.39-33.37-.14-18.26-15.49-33.5-33.63-33.36-18.48.14-33.15,15.02-33.12,33.6.02,18.68,14.61,33.17,33.36,33.13Z"/><path class="cls-1" d="M102.59,215.41c-19.4-19.27-24.86-41.06-10.14-64.28,13.8-21.79,34.82-26.61,59.58-18.91.23-2.49.6-4.71.6-6.92.05-17.34-.03-34.68.06-52.02.09-18.9,10.27-28.9,29.26-28.91,41.94-.01,83.89.25,125.83-.12,18.93-.17,29.72,13.16,29.35,29.15-.67,28.72-.17,57.47-.2,86.21-.02,16.5-10.25,26.98-26.79,27.1-23.94.16-47.89.13-71.83,0-4.12-.02-7.11,1.21-9.95,4.26-8.98,9.69-18.23,19.13-27.4,28.63-2.67,2.77-5.4,5.57-9.85,3.77-4.47-1.81-5.12-5.63-5.12-9.78,0-7.76.07-15.53-.13-23.28-.03-1.1-1.35-3.02-2.13-3.05-1.33-.05-3.64.83-3.92,1.79-3,10.23-8.59,18.78-17.17,26.22,2.38,1.12,3.97,1.87,5.57,2.62,29.71,14.03,47.39,37.06,52.02,69.77.93,6.57-1.89,9.82-8.4,9.82-52.68.04-105.35.04-158.03,0-6.7,0-9.65-3.75-8.47-10.82,5.38-32.21,22.77-55.31,52.56-68.92,1.45-.66,2.87-1.4,4.71-2.31ZM201.11,195.68c6.03-5.48,12.01-10.02,16.85-15.56,5.21-5.96,10.83-8.36,18.87-8.18,23.92.53,47.85.22,71.78.17,9.3-.02,13.54-3.9,13.59-13.13.14-28.88.14-57.77,0-86.65-.05-9.12-4.09-12.77-13.21-12.77-42.74-.01-85.48-.01-128.22,0-9.47,0-13.28,3.74-13.29,13.11-.03,21.95-.11,43.9.11,65.85.03,2.69,1.49,5.5,2.74,8.03,2.76,5.58,6.45,10.78,8.6,16.57,3.26,8.77,2.84,8.93,12,9,7.79.06,10.15,2.49,10.19,10.49.02,4.37,0,8.74,0,13.06ZM61.78,282.1h141.87c-2.65-28.88-35.6-55.67-69.09-56.8-33.91-1.15-67.9,25.08-72.78,56.8ZM166.07,177.31c.06-18.76-14.41-33.45-33.01-33.52-18.6-.07-33.56,14.53-33.8,32.99-.24,18.04,14.99,33.52,33.27,33.81,18.18.29,33.49-14.9,33.54-33.28Z"/><path class="cls-1" d="M509.71,359.17c2.51-1.27,4.16-2.23,5.9-2.95,3.85-1.6,7.23-.86,9.48,2.75,2.14,3.42,1.66,7.09-1.57,9.28-8.6,5.82-17.38,11.41-26.35,16.66-3.86,2.26-8.18.13-9.87-4.52-3.15-8.68-6.08-17.45-8.83-26.26-1.55-4.97.32-9.04,4.16-10.3,4.38-1.43,7.81.55,9.92,5.72.49,1.19,1.01,2.36,2.75,3.7,1.2-4.47,2.6-8.9,3.56-13.42,21.69-102.23-36.97-202.22-136.73-233.18-1.1-.34-2.22-.64-3.29-1.07-4.44-1.77-6.44-5.36-5.24-9.3,1.24-4.06,5.24-6.03,9.95-4.65,45.72,13.38,83.08,39.07,111.82,76.99,24.73,32.63,38.71,69.48,42.13,110.38,2.12,25.28-.15,50.07-6.72,74.52-.41,1.53-.6,3.11-1.07,5.66Z"/><path class="cls-1" d="M95.93,344.82c-1.83,2.78-2.77,4.49-3.98,5.98-2.44,3.03-5.54,4.2-9.19,2.34-3.84-1.97-5.24-5.57-3.48-9.19,4.47-9.19,9.32-18.22,14.43-27.07,2.25-3.9,7.18-4.42,10.82-1.32,7.41,6.31,14.67,12.83,21.74,19.51,3.33,3.14,3.24,7.13.5,10.2-2.76,3.09-6.42,3.38-10.21.75-1.44-1-2.82-2.08-5.38-3.98.66,3.17.89,5.05,1.43,6.84,24.1,79.28,76.97,127.2,157.87,144.09,17,3.55,34.39,3.92,51.75,2.26,1.31-.13,2.64-.16,3.96-.14,4.7.1,7.47,2.46,7.75,6.56.29,4.26-2.4,7.68-7.04,7.87-12.19.5-24.45,1.56-36.58.77-36.92-2.4-71.17-13.56-102.14-33.96-45.91-30.23-75.98-72.05-90.43-125.09-.47-1.72-.98-3.44-1.82-6.42Z"/><path class="cls-1" d="M317.86,318.46c-15.03,0-30.05.08-45.08-.03-5.58-.04-8.53-3.42-7.73-8.44.65-4.06,3.33-6,7.27-6.01,30.38-.05,60.77-.07,91.15.01,4.67.01,7.78,3.18,7.79,7.27,0,4.09-3.06,7.12-7.83,7.16-15.19.11-30.38.04-45.57.04Z"/><path class="cls-1" d="M318.14,351.26c-14.86,0-29.72-.02-44.58,0-3.96,0-7.29-.98-8.39-5.3-1.34-5.21,1.99-9.22,7.89-9.26,15.03-.1,30.05-.05,45.08-.05,14.86,0,29.72-.06,44.58.04,6.69.05,10.88,5.9,7.39,10.7-1.52,2.09-5.16,3.63-7.87,3.7-14.69.35-29.39.17-44.09.17Z"/><path class="cls-1" d="M317.85,369.39c14.7,0,29.39-.03,44.09.01,5.82.02,9.27,2.8,9.31,7.32.04,4.49-3.29,7.31-9.27,7.32-29.39.07-58.78.07-88.18,0-6.17-.02-8.99-2.62-8.86-7.52.13-4.75,3.14-7.1,9.31-7.11,14.53-.03,29.06,0,43.59,0Z"/><path class="cls-1" d="M233.67,112.32c2.54-2.41,3.99-3.73,5.37-5.12,9.54-9.61,18.94-19.36,28.62-28.83,7.84-7.67,19.8-7.66,27.2-.35,7.48,7.39,7.76,19.3.12,27.19-15.41,15.89-30.96,31.63-46.66,47.23-8.39,8.34-19.39,8.28-27.84.08-8.65-8.39-17.18-16.93-25.57-25.58-8.06-8.3-8.06-19.74-.27-27.49,7.67-7.64,19.26-7.55,27.51.45,3.89,3.77,7.39,7.94,11.52,12.42ZM234.55,144.1c1.91-1.51,3.82-2.72,5.37-4.29,14.09-14.17,28.13-28.4,42.17-42.61.81-.82,2.09-1.6,2.26-2.55.33-1.88.78-4.59-.21-5.63-.95-1-3.8-.78-5.55-.25-1.41.43-2.45,2.12-3.61,3.29-11.4,11.49-22.75,23.03-34.2,34.47-4.62,4.61-8.16,4.61-12.82.11-5.23-5.05-10.31-10.24-15.45-15.38-2.2-2.2-4.76-3.57-7.3-.96-2.33,2.4-1.06,4.86,1.01,6.93,8.06,8.06,16.1,16.13,24.21,24.14,1,.99,2.38,1.59,4.13,2.72Z"/></svg>