<?xml version="1.0" encoding="UTF-8"?><svg id="Ebene_1" xmlns="http://www.w3.org/2000/svg" viewBox="0 0 595.28 583.89"><defs><style>.cls-1{fill:#2b2b2b;}</style></defs><path class="cls-1" d="M305.97,25.82c58.75,3.68,108.26,38.21,126.64,94.95.79,2.45,2.87,13.25,3.3,13.82.33.44,4.56,1.55,6.18,2.66,5.5,3.78,10.56,9.45,11.83,16.19,1.76,9.28,1.71,48.84.22,58.44-.64,4.15-4.02,10.79-7.03,13.73-2.05,2-8.22,4.73-8.82,5.71-1.14,1.85-.33,7.67-.77,10.64-1.9,12.78-13.5,23.36-26.21,24.65-6.63.67-13.63-.9-20.24.52l-10.37,18.18h81.47c3.53,0,13.83,6.6,16.5,9.45,3.41,3.65,8.93,14.31,8.93,19.09v172.8c24.46-2.84,29.92,11.05,28.06,32.73-1.47,17.14-13.88,32.83-30.92,36.54-11.06,2.41-50.44,2.82-61.91,1.21-10.67-1.5-10.68-13.88,0-15.38,17.28-2.42,39.4,1.89,56.99-.09s25.06-24.08,19.99-39.2l-3.45-1.19-394.16.86c-5.77,15.44,1.04,35.77,18.6,39.43l262.53.05c13.22.02,13.14,15.67,0,15.65-88.79-.94-177.88,1.69-266.51-1.34-15.76-3.84-28.65-17.47-30.59-33.76-2.63-22.11,1.7-38.68,27.73-35.52v-172.8c0-4.78,5.52-15.44,8.93-19.09,2.67-2.85,12.96-9.45,16.5-9.45h81.47l-14.71-27.32-8.06-25.15c-18.03-1.7-44.28,5.29-50.03-18.47-2.32-9.61-1.93-46.28-.93-57.28.66-7.23,4.95-15.01,10.93-19.16,1.95-1.35,7.3-2.93,7.59-3.32.73-1,5.02-19.71,6.68-23.93,4.44-11.29,11.96-23.94,19.5-33.43,2.55-3.21,12.33-14.64,15.48-15.65,7.19-2.31,12.28,2.77,9.97,9.97-.52,1.62-10.75,11.25-13,13.99-11.02,13.42-20.42,31-22.86,48.23h19.2c11.93-33.59,38.77-60.63,73.76-69.46,39.12-9.87,79.6,2.73,105.8,33.12,9.38,10.89,15.39,23.11,20.74,36.34h19.2c-4.87-30.42-27.1-58.28-53.02-74.12-31.88-19.48-70.89-23.73-106.59-12.32-6.47,2.07-27.23,15.01-29.27,3.89-1.41-7.68,3.36-9.04,8.96-11.74,15.84-7.66,39.17-13.12,56.42-13.64h9.34ZM390.03,154.51c-8.97-63.86-78.46-99.49-135.24-66.22-19.06,11.17-35.19,32.3-40.69,53.76-.83,3.26-3.02,10.12-1.03,12.46h176.95ZM195.95,148.28h-25.43c-5.27,0-8.44,7.37-8.86,11.9-.98,10.48-1.29,37.65.13,47.69.45,3.15,4.64,9.95,7.69,9.95h26.47v-69.54ZM405.6,217.82h26.47c3.05,0,7.24-6.81,7.69-9.95,1.42-10.04,1.11-37.2.13-47.69-.42-4.53-3.59-11.9-8.86-11.9h-25.43v69.54ZM390.03,169.04h-178.51v54.49c0,2.63,2.74,11.8,3.63,15.05,4.72,17.03,13.93,33.72,26.14,46.51l119.67-.33,12.46-18.16h-56.56c-.39,0-3.51-3.54-3.9-4.43-1.99-4.57.71-8.41,5.16-9.88l63.65-.7c.73-.5,2.83-6.53,3.37-8.05,1.32-3.72,4.89-16.74,4.89-20.02v-54.49ZM423.24,232.35h-19.2l-5.7,19.71c14,2.06,26.28-4.25,24.91-19.71ZM472.02,486.63v-174.88c0-4.05-10.93-13.39-16.04-11.98l-314.05.5c-3.83-.13-12.4,8.58-12.4,11.47v174.88h342.49Z"/><path class="cls-1" d="M294.3,359.24c49.4-7.17,54.55,64.2,9.98,68.1-45.42,3.97-50.51-62.22-9.98-68.1ZM296.34,373.74c-6.59,1.22-13.5,8.84-14.82,15.26-4.17,20.24,22.04,32.52,34.82,16.15,11.37-14.56-2.03-34.73-20-31.41Z"/></svg>